<svg xmlns="http://www.w3.org/2000/svg" xmlns:xlink="http://www.w3.org/1999/xlink" width="415.5" height="332.459" viewBox="0 0 415.5 332.459"><defs><filter id="a" x="23.999" y="0" width="354" height="298" filterUnits="userSpaceOnUse"><feOffset dy="3" input="SourceAlpha"/><feGaussianBlur stdDeviation="3" result="b"/><feFlood flood-opacity="0.161"/><feComposite operator="in" in2="b"/><feComposite in="SourceGraphic"/></filter><linearGradient id="c" x2="1" y2="1" gradientUnits="objectBoundingBox"><stop offset="0" stop-color="#5393fc"/><stop offset="1" stop-color="#1f54aa"/></linearGradient><linearGradient id="d" x1="0.5" x2="0.5" y2="1" gradientUnits="objectBoundingBox"><stop offset="0" stop-color="#3fc964"/><stop offset="1" stop-color="#239843"/></linearGradient><linearGradient id="e" x1="0.5" x2="0.5" y2="1" gradientUnits="objectBoundingBox"><stop offset="0" stop-color="#ea4335"/><stop offset="1" stop-color="#e13510"/></linearGradient><linearGradient id="g" x1="0.5" x2="0.5" y2="1" gradientUnits="objectBoundingBox"><stop offset="0" stop-color="#ffc10d"/><stop offset="1" stop-color="#f3a200"/></linearGradient><linearGradient id="h" x1="0.5" x2="0.5" y2="1" gradientUnits="objectBoundingBox"><stop offset="0" stop-color="#91c934"/><stop offset="1" stop-color="#3ec762"/></linearGradient><filter id="i" x="199.102" y="128.702" width="216.397" height="203.757" filterUnits="userSpaceOnUse"><feOffset dy="2" input="SourceAlpha"/><feGaussianBlur stdDeviation="5" result="j"/><feFlood flood-opacity="0.161"/><feComposite operator="in" in2="j"/><feComposite in="SourceGraphic"/></filter><filter id="k" x="0" y="112" width="234" height="95" filterUnits="userSpaceOnUse"><feOffset dy="3" input="SourceAlpha"/><feGaussianBlur stdDeviation="3" result="l"/><feFlood flood-opacity="0.161"/><feComposite operator="in" in2="l"/><feComposite in="SourceGraphic"/></filter></defs><g transform="translate(-495 -2640)"><g transform="translate(-281.58 2560.798)"><g transform="matrix(1, 0, 0, 1, 776.58, 79.2)" filter="url(#a)"><g transform="translate(36 9)" fill="#fff" stroke="#fff" stroke-width="3"><rect width="330" height="274" rx="8" stroke="none"/><rect x="-1.5" y="-1.5" width="333" height="277" rx="9.5" fill="none"/></g></g><path d="M8,0H322a8,8,0,0,1,8,8V26a0,0,0,0,1,0,0H0a0,0,0,0,1,0,0V8A8,8,0,0,1,8,0Z" transform="translate(812.579 88.202)" fill="url(#c)"/><rect width="276" height="45" rx="20" transform="translate(839.579 141.202)" fill="#ebf2fb"/><path d="M0,0H51A20,20,0,0,1,71,20v5A20,20,0,0,1,51,45H0a0,0,0,0,1,0,0V0A0,0,0,0,1,0,0Z" transform="translate(1044.579 141.202)" fill="url(#d)"/><text transform="translate(859.58 169.202)" fill="#3a75d5" font-size="17" font-family="OpenSans-Semibold, Open Sans" font-weight="600"><tspan x="0" y="0">Search</tspan></text><rect width="125" height="9" rx="4" transform="translate(848.579 203.202)" fill="#5191f9"/><rect width="125" height="7" rx="3.5" transform="translate(848.579 302.202)" fill="#5191f9"/><rect width="125" height="7" rx="3.5" transform="translate(848.579 257.202)" fill="#5191f9"/><rect width="71" height="5" rx="2" transform="translate(848.579 221.202)" fill="#d5d5d5"/><rect width="71" height="4" rx="2" transform="translate(848.579 318.202)" fill="#d5d5d5"/><rect width="71" height="4" rx="2" transform="translate(848.579 273.202)" fill="#d5d5d5"/><rect width="71" height="5" rx="2" transform="translate(928.579 221.202)" fill="#d5d5d5"/><rect width="71" height="4" rx="2" transform="translate(928.579 318.202)" fill="#d5d5d5"/><rect width="71" height="4" rx="2" transform="translate(928.579 273.202)" fill="#d5d5d5"/><rect width="71" height="4" rx="2" transform="translate(848.579 235.202)" fill="#d5d5d5"/><rect width="71" height="4" rx="2" transform="translate(848.579 331.202)" fill="#d5d5d5"/><rect width="71" height="4" rx="2" transform="translate(848.579 286.202)" fill="#d5d5d5"/><rect width="71" height="4" rx="2" transform="translate(928.579 235.202)" fill="#d5d5d5"/><rect width="71" height="4" rx="2" transform="translate(928.579 331.202)" fill="#d5d5d5"/><rect width="71" height="4" rx="2" transform="translate(928.579 286.202)" fill="#d5d5d5"/><rect width="89" height="63" rx="4" transform="translate(1026.579 203.202)" fill="#ebf2fb"/><circle cx="4.5" cy="4.5" r="4.5" transform="translate(1124.579 97.202)" fill="url(#e)"/><circle cx="4.5" cy="4.5" r="4.5" transform="translate(1106.579 97.202)" fill="url(#d)"/><circle cx="4.5" cy="4.5" r="4.5" transform="translate(1088.579 97.202)" fill="url(#g)"/><path d="M8.5,0,17,13H0Z" transform="translate(1077.579 226.202) rotate(90)" fill="#5191f9"/><path d="M1.356,23.08l6.031-6.272a10.227,10.227,0,1,1,7.831,3.654A10.121,10.121,0,0,1,9.356,18.61L3.279,24.93a1.334,1.334,0,1,1-1.923-1.85ZM15.218,2.669a7.562,7.562,0,1,0,7.562,7.562A7.57,7.57,0,0,0,15.218,2.669Z" transform="translate(1066.669 151.385)" fill="#fff"/></g><g transform="matrix(1, 0, 0, 1, 495, 2640)" filter="url(#i)"><path d="M752.412,542.137l-5.784-48.531-47.9,9.028,2.884,15.3L723,513.9l-53.133,77.656-38.61-18.018L569.015,654.9l12.366,9.46,54.637-71.418,39.239,18.312,59.371-86.773,2.323,19.5Z" transform="translate(-353.41 -350.4)" stroke="#fff" stroke-linejoin="round" stroke-width="3" fill="url(#h)"/></g><g transform="translate(503.131 2621.644)"><g transform="matrix(1, 0, 0, 1, -8.13, 18.36)" filter="url(#k)"><rect width="212" height="73" rx="4" transform="translate(11 120)" fill="#fff" stroke="#fff" stroke-width="4"/></g><g transform="translate(2.87 138.357)" fill="#fff" stroke="#3cc561" stroke-width="1" stroke-dasharray="4"><rect width="212" height="73" rx="4" stroke="none"/><rect x="0.5" y="0.5" width="211" height="72" rx="3.5" fill="none"/></g><rect width="125" height="7" rx="3.5" transform="translate(20.869 153.356)" fill="#5191f9"/><rect width="71" height="4" rx="2" transform="translate(20.869 169.356)" fill="#d5d5d5"/><rect width="71" height="4" rx="2" transform="translate(100.869 169.356)" fill="#d5d5d5"/><rect width="71" height="4" rx="2" transform="translate(20.869 182.356)" fill="#d5d5d5"/><rect width="71" height="4" rx="2" transform="translate(100.869 182.356)" fill="#d5d5d5"/></g><g transform="translate(524 2815.202)"><path d="M153.685,206.429l1.186,2.4,2.651.385-1.918,1.87.453,2.64-2.371-1.247-2.371,1.247.453-2.64-1.918-1.87,2.651-.385Z" transform="translate(-149.849 -206.429)" fill="#f8ae05"/><path d="M153.685,206.429l1.186,2.4,2.651.385-1.918,1.87.453,2.64-2.371-1.247-2.371,1.247.453-2.64-1.918-1.87,2.651-.385Z" transform="translate(-139.709 -206.429)" fill="#f8ae05"/><path d="M153.685,206.429l1.186,2.4,2.651.385-1.918,1.87.453,2.64-2.371-1.247-2.371,1.247.453-2.64-1.918-1.87,2.651-.385Z" transform="translate(-129.569 -206.429)" fill="#f8ae05"/><path d="M153.685,206.429l1.186,2.4,2.651.385-1.918,1.87.453,2.64-2.371-1.247-2.371,1.247.453-2.64-1.918-1.87,2.651-.385Z" transform="translate(-119.429 -206.429)" fill="#f8ae05"/><path d="M153.685,206.429l1.186,2.4,2.651.385-1.918,1.87.453,2.64-2.371-1.247-2.371,1.247.453-2.64-1.918-1.87,2.651-.385Z" transform="translate(-109.29 -206.429)" fill="#f8ae05"/><path d="M153.685,206.429l1.186,2.4,2.651.385-1.918,1.87.453,2.64-2.371-1.247-2.371,1.247.453-2.64-1.918-1.87,2.651-.385Z" transform="translate(-109.289 -206.429)" fill="none"/></g></g></svg>